<svg xmlns="http://www.w3.org/2000/svg" viewBox="0 0 1920 960">
  <defs>
    <linearGradient id="bg3" x1="0" y1="0" x2="1" y2="1">
      <stop offset="0%" stop-color="#1A1D24"/>
      <stop offset="100%" stop-color="#06080B"/>
    </linearGradient>
    <linearGradient id="metalRed3" x1="0" y1="0" x2="0" y2="1">
      <stop offset="0%" stop-color="#FF4D52"/>
      <stop offset="45%" stop-color="#D62035"/>
      <stop offset="100%" stop-color="#7A0816"/>
    </linearGradient>
    <!-- Cover gradient: deep purple/magenta -->
    <linearGradient id="coverKey" x1="0" y1="0" x2="1" y2="1">
      <stop offset="0%" stop-color="#A21CAF"/>
      <stop offset="50%" stop-color="#7E22CE"/>
      <stop offset="100%" stop-color="#1E1B4B"/>
    </linearGradient>
    <linearGradient id="dimKey" x1="0" y1="0" x2="0" y2="1">
      <stop offset="0%"  stop-color="#000000" stop-opacity="0.20"/>
      <stop offset="100%" stop-color="#000000" stop-opacity="0.70"/>
    </linearGradient>
  </defs>

  <rect width="1920" height="960" fill="url(#bg3)"/>

  <!-- Left: Stream Deck mockup (6 keys, 1 with cover art) -->
  <g transform="translate(160, 200)">
    <rect x="0" y="0" width="780" height="560" rx="30" fill="#000000" stroke="#2A2F38" stroke-width="3"/>

    <!-- Key 1 — primary "Now Playing" with cover background -->
    <clipPath id="key1Clip"><rect x="60" y="60" width="200" height="200" rx="14"/></clipPath>
    <g clip-path="url(#key1Clip)">
      <rect x="60" y="60" width="200" height="200" fill="url(#coverKey)"/>
      <circle cx="220" cy="100" r="60" fill="#FFFFFF" opacity="0.10"/>
      <rect x="60" y="60" width="200" height="200" fill="url(#dimKey)"/>
      <text x="160" y="225" text-anchor="middle"
            font-family="-apple-system, sans-serif"
            font-size="20" font-weight="600" fill="#FFFFFF">Eagles</text>
      <text x="160" y="250" text-anchor="middle"
            font-family="-apple-system, sans-serif"
            font-size="18" font-weight="500" fill="#FFFFFF">Hotel California</text>
    </g>

    <!-- Key 2 (generic play icon) -->
    <rect x="290" y="60" width="200" height="200" rx="14" fill="#1A1D24"/>
    <circle cx="390" cy="160" r="40" fill="#374151"/>
    <polygon points="380,140 380,180 410,160" fill="#9CA3AF"/>

    <!-- Key 3 (generic eq bars) -->
    <rect x="520" y="60" width="200" height="200" rx="14" fill="#1A1D24"/>
    <g transform="translate(580, 110)" fill="#9CA3AF">
      <rect x="0" y="20" width="20" height="60"/>
      <rect x="30" y="0" width="20" height="80"/>
      <rect x="60" y="30" width="20" height="50"/>
    </g>

    <!-- Key 4 (record) -->
    <rect x="60" y="290" width="200" height="200" rx="14" fill="#1A1D24"/>
    <circle cx="160" cy="390" r="40" fill="none" stroke="#9CA3AF" stroke-width="8"/>

    <!-- Key 5 (play) -->
    <rect x="290" y="290" width="200" height="200" rx="14" fill="#1A1D24"/>
    <polygon points="370,370 370,410 420,390" fill="#9CA3AF"/>

    <!-- Key 6 (stop) -->
    <rect x="520" y="290" width="200" height="200" rx="14" fill="#1A1D24"/>
    <rect x="600" y="370" width="40" height="40" fill="#9CA3AF"/>
  </g>

  <!-- Right: headline -->
  <text x="1080" y="370"
        font-family="-apple-system, sans-serif"
        font-size="80" font-weight="800" fill="#FFFFFF" letter-spacing="-2">Album art,</text>
  <text x="1080" y="465"
        font-family="-apple-system, sans-serif"
        font-size="80" font-weight="800" fill="url(#metalRed3)" letter-spacing="-2">live on every key.</text>
  <text x="1082" y="555"
        font-family="-apple-system, sans-serif"
        font-size="34" font-weight="400" fill="#9CA3AF">Tap any key for play / pause. Works on</text>
  <text x="1082" y="600"
        font-family="-apple-system, sans-serif"
        font-size="34" font-weight="400" fill="#9CA3AF">all Stream Deck models, best on the +.</text>
</svg>
