<svg xmlns="http://www.w3.org/2000/svg" viewBox="0 0 1920 960">
  <defs>
    <linearGradient id="bg3" x1="0" y1="0" x2="1" y2="1">
      <stop offset="0%" stop-color="#1F2329"/>
      <stop offset="100%" stop-color="#0A0C0F"/>
    </linearGradient>
    <linearGradient id="cover" x1="0" y1="0" x2="1" y2="1">
      <stop offset="0%" stop-color="#8B5CF6"/>
      <stop offset="100%" stop-color="#EC4899"/>
    </linearGradient>
  </defs>

  <rect width="1920" height="960" fill="url(#bg3)"/>

  <!-- Left: Stream Deck mockup (4 keys, 1 with cover) -->
  <g transform="translate(160, 200)">
    <!-- Stream Deck body -->
    <rect x="0" y="0" width="780" height="560" rx="30" fill="#000000" stroke="#2A2F38" stroke-width="3"/>

    <!-- Key 1 (with cover art) — primary "Now Playing" key -->
    <rect x="60" y="60" width="200" height="200" rx="14" fill="url(#cover)"/>
    <text x="160" y="220" text-anchor="middle"
          font-family="-apple-system, sans-serif"
          font-size="20" font-weight="700" fill="#FFFFFF">Eagles</text>
    <text x="160" y="245" text-anchor="middle"
          font-family="-apple-system, sans-serif"
          font-size="18" font-weight="500" fill="#FFFFFF">Hotel California</text>

    <!-- Key 2 (generic icon) -->
    <rect x="290" y="60" width="200" height="200" rx="14" fill="#1A1D24"/>
    <circle cx="390" cy="160" r="40" fill="#374151"/>
    <polygon points="380,140 380,180 410,160" fill="#9CA3AF"/>

    <!-- Key 3 (generic icon) -->
    <rect x="520" y="60" width="200" height="200" rx="14" fill="#1A1D24"/>
    <g transform="translate(580, 110)" fill="#9CA3AF">
      <rect x="0" y="20" width="20" height="60"/>
      <rect x="30" y="0" width="20" height="80"/>
      <rect x="60" y="30" width="20" height="50"/>
    </g>

    <!-- Key 4 (generic icon) -->
    <rect x="60" y="290" width="200" height="200" rx="14" fill="#1A1D24"/>
    <circle cx="160" cy="390" r="40" fill="none" stroke="#9CA3AF" stroke-width="8"/>

    <!-- Key 5 (generic icon) -->
    <rect x="290" y="290" width="200" height="200" rx="14" fill="#1A1D24"/>
    <path d="M370 370 L370 410 L420 390 Z" fill="#9CA3AF"/>

    <!-- Key 6 (generic icon) -->
    <rect x="520" y="290" width="200" height="200" rx="14" fill="#1A1D24"/>
    <rect x="600" y="370" width="40" height="40" fill="#9CA3AF"/>
  </g>

  <!-- Right: Headline + description -->
  <text x="1080" y="380"
        font-family="-apple-system, BlinkMacSystemFont, 'SF Pro Display', sans-serif"
        font-size="80" font-weight="800" fill="#FFFFFF" letter-spacing="-2">Album art,</text>
  <text x="1080" y="475"
        font-family="-apple-system, BlinkMacSystemFont, 'SF Pro Display', sans-serif"
        font-size="80" font-weight="800" fill="#2DD4BF" letter-spacing="-2">live on every key.</text>
  <text x="1082" y="565"
        font-family="-apple-system, BlinkMacSystemFont, 'SF Pro Display', sans-serif"
        font-size="34" font-weight="400" fill="#9CA3AF">Tap any key for play / pause. Works on all</text>
  <text x="1082" y="612"
        font-family="-apple-system, BlinkMacSystemFont, 'SF Pro Display', sans-serif"
        font-size="34" font-weight="400" fill="#9CA3AF">Stream Deck models, best on Stream Deck +.</text>
</svg>
